
<svg width="550px" height="352px" viewBox="0 0 550 352" version="1.1" xmlns="http://www.w3.org/2000/svg" xmlns:xlink="http://www.w3.org/1999/xlink">
    <g id="Page-1" stroke="none" stroke-width="1" fill="none" fill-rule="evenodd" opacity="0.498465402">
        <g id="Desktop-Copy-3" transform="translate(-805.000000, -336.000000)" fill-rule="nonzero">
            <g id="undraw_diet_ghvw" transform="translate(805.000000, 336.000000)">
                <ellipse id="Oval" fill="#E6E6E6" cx="462.5" cy="345.5" rx="87.5" ry="6.5"></ellipse>
                <path d="M89,144.201893 C89.0279416,137.49004 83.3147713,132 76.6086731,132 L14.3807625,132 C7.78069101,132 2.0782635,137.399248 2.00098929,144.004561 C1.95244774,147.810546 3.69261312,151.418403 6.70036838,153.747708 C7.47430055,154.324862 7.88309478,155.270459 7.77358155,156.230198 C7.70139457,156.765449 7.66520083,157.304947 7.6652446,157.845052 L7.6652446,200.924921 C7.6652427,204.12743 8.93633569,207.198774 11.1988974,209.463291 C13.4614592,211.727808 16.5301522,213 19.7298986,213 L70.865613,213 C77.5287176,213 82.9302312,207.593822 82.9302312,200.924964 L82.9302312,157.845073 C82.9302965,157.372444 82.9027822,156.900214 82.8478288,156.430795 C82.7487303,155.48437 83.1702178,154.558592 83.9488432,154.012466 C87.1073811,151.742522 88.9860145,148.093686 89,144.201893 L89,144.201893 Z" id="Path" fill="#32292F"></path>
                <path d="M86.9321368,143.417266 C86.287925,138.564787 82.1314739,134.954435 77.2421828,135 L14.7589897,135 C10.2087848,134.959627 6.24101041,138.088843 5.21520304,142.527217 C4.34039778,146.590017 6.18595391,150.753493 9.78208823,152.829868 C10.8228471,153.425717 11.328861,154.651232 11.0121227,155.808887 C10.7903953,156.619304 10.678433,157.455872 10.6792406,158.296141 L10.6792406,201.522398 C10.6798328,206.079755 13.9191442,209.991897 18.3922148,210.837418 C18.9705543,210.945376 19.5575937,211 20.1459003,211 L71.4452846,211 C72.3113509,211.00133 73.1734133,210.882337 74.0068047,210.646414 C78.0876248,209.496744 80.9071476,205.770673 80.9078832,201.526464 L80.9078832,158.292061 C80.9080096,157.505294 80.8098263,156.721602 80.6156202,155.959238 C80.5626728,155.747894 80.5354103,155.530923 80.5344249,155.313035 C80.5351801,154.339361 81.0721573,153.44545 81.9308753,152.988351 L81.9349437,152.984285 C85.414756,151.134946 87.4003521,147.333565 86.9321368,143.417266 Z" id="Path" fill="#ECECEC"></path>
                <path d="M81,162.433118 L81,158.36895 L74.1213893,158.36895 L74.1213893,135 L70.0751481,135 L70.0751481,158.36895 L48.4277576,158.36895 L48.4277576,135 L44.3815093,135 L44.3815093,158.36895 L22.7341187,158.36895 L22.7341187,135 L18.6878775,135 L18.6878775,158.36895 L11,158.36895 L11,162.433118 L18.6878632,162.433118 L18.6878632,174.625667 L11,174.625667 L11,178.689836 L18.6878632,178.689836 L18.6878632,190.882349 L11,190.882349 L11,194.946517 L18.6878632,194.946517 L18.6878632,210.837417 C19.2643198,210.945376 19.849448,210.999989 20.4358392,210.999989 L22.7341044,210.999989 L22.7341044,194.946481 L44.381495,194.946481 L44.381495,210.999989 L48.4277433,210.999989 L48.4277433,194.946481 L70.0751338,194.946481 L70.0751338,210.999989 L71.5681945,210.999989 C72.4314411,211.001295 73.2906968,210.882301 74.121375,210.646377 L74.121375,194.946481 L81,194.946481 L81,190.882313 L74.1213893,190.882313 L74.1213893,178.6898 L81,178.6898 L81,174.625667 L74.1213893,174.625667 L74.1213893,162.433118 L81,162.433118 Z M22.734133,162.433118 L44.3815236,162.433118 L44.3815236,174.625667 L22.734133,174.625667 L22.734133,162.433118 Z M22.734133,190.882313 L22.734133,178.6898 L44.3815236,178.6898 L44.3815236,190.882313 L22.734133,190.882313 Z M70.0751768,190.882306 L48.4277862,190.882306 L48.4277862,178.6898 L70.0751768,178.6898 L70.0751768,190.882306 Z M70.0751768,174.625624 L48.4277862,174.625624 L48.4277862,162.433118 L70.0751768,162.433118 L70.0751768,174.625624 Z" id="Shape" fill="#000000" opacity="0.2"></path>
                <path d="M89,42 C89,57.3624203 80.7089472,71.5578821 67.2500003,79.2390923 C53.7910533,86.9203026 37.2089467,86.9203026 23.7499997,79.2390923 C10.2910528,71.5578821 2,57.3624203 2,42 L89,42 L89,42 Z" id="Path" fill="#ECECEC"></path>
                <path d="M18,50 C18,51.1045701 17.5522853,52 17,52 C16.4477067,52 16,51.1045701 16,50 C16.0607006,49.2525796 16.4138497,48.5462772 17,48 C17.5861463,48.5462756 17.9392985,49.2525784 18,50 L18,50 Z" id="Path" fill="#32292F"></path>
                <path d="M64,57 C64,58.1045685 63.5522835,59 63,59 C62.4477165,59 62,58.1045685 62,57 C62.060702,56.2525771 62.4138525,55.546276 63,55 C63.5861475,55.546276 63.939298,56.2525771 64,57 L64,57 Z" id="Path" fill="#32292F"></path>
                <path d="M30,53 C30,54.1045685 29.5522835,55 29,55 C28.4477165,55 28,54.1045685 28,53 C28.060702,52.2525771 28.4138525,51.546276 29,51 C29.5861475,51.546276 29.939298,52.2525771 30,53 Z" id="Path" fill="#32292F"></path>
                <path d="M48,69 C48,70.1045685 47.5522835,71 47,71 C46.4477165,71 46,70.1045685 46,69 C46.060702,68.2525771 46.4138525,67.546276 47,67 C47.5861475,67.546276 47.939298,68.2525771 48,69 L48,69 Z" id="Path" fill="#32292F"></path>
                <path d="M29,67 C29,68.1045685 28.5522853,69 28,69 C27.4477227,69 27,68.1045685 27,67 C27.0607027,66.2525759 27.4138548,65.5462744 28,65 C28.5861491,65.546276 28.9392983,66.2525771 29,67 L29,67 Z" id="Path" fill="#32292F"></path>
                <path d="M74,48 C74,49.1045701 73.5522835,50 73,50 C72.4477165,50 72,49.1045701 72,48 C72.060702,47.2525749 72.4138525,46.5462751 73,46 C73.5861475,46.5462751 73.939298,47.2525749 74,48 Z" id="Path" fill="#32292F"></path>
                <path d="M58,73 C58,74.1045685 57.5522835,75 57,75 C56.4477165,75 56,74.1045685 56,73 C56.060702,72.2525771 56.4138525,71.546276 57,71 C57.5861475,71.546276 57.939298,72.2525771 58,73 L58,73 Z" id="Path" fill="#32292F"></path>
                <path d="M45.5000356,88 C20.3828455,87.9712572 0.0284303833,67.3931833 0,42 L4.8431067,42 C4.84310627,56.6849165 12.5922663,70.2543392 25.171553,77.5967976 C37.7508397,84.939256 53.2491603,84.939256 65.828447,77.5967976 C78.4077337,70.2543392 86.1568937,56.6849165 86.1568933,42 L91,42 C90.9715697,67.3931552 70.6171979,87.9712175 45.5000356,88 L45.5000356,88 Z" id="Path" fill="#32292F"></path>
                <rect id="Rectangle" fill="#32292F" x="137" y="58" width="14" height="14"></rect>
                <rect id="Rectangle" fill="#32292F" x="176" y="64" width="115" height="1"></rect>
                <rect id="Rectangle" fill="#32292F" x="137" y="166" width="14" height="14"></rect>
                <rect id="Rectangle" fill="#32292F" x="176" y="172" width="115" height="1"></rect>
                <rect id="Rectangle" fill="#32292F" x="137" y="273" width="14" height="14"></rect>
                <rect id="Rectangle" fill="#32292F" x="176" y="279" width="115" height="1"></rect>
                <path d="M452.99791,78.9994944 L434.694065,93.2648791 L395.908945,79.7867503 C395.908945,79.7867503 382.721817,65.1203561 375.264713,76.04415 C372.710804,79.7853264 389.438652,86.6970551 391.016776,87.3393845 C394.962082,88.945208 432.755748,109.44681 436.459239,106.757105 C440.162729,104.0674 461,90.4631958 461,90.4631958 L452.99791,78.9994944 Z" id="Path" fill="#A0616A"></path>
                <path d="M516,54 C498.736669,47.5694527 482.314533,44.526951 469,54 L469,23.4264392 C469,17.2133612 471.47588,11.2547548 475.882975,6.86144519 C480.29007,2.46813562 486.267373,0 492.499947,0 L492.5,0 C498.732576,0 504.709885,2.4681405 509.116981,6.86145776 C513.524076,11.254775 516,17.2133906 516,23.4264748 L516,54 Z" id="Path" fill="#32292F"></path>
                <path d="M472.436414,121.43848 L471.019767,131.36394 C471.019767,131.36394 467.478169,141.99836 471.019767,161.849278 L414,317.466292 L456.145041,329.518641 L477.04048,244.443272 L506.435769,179.573314 L503.60249,253.305294 L488.727772,332 L532.643601,330.227601 L545.440688,195.28978 C547.509975,173.96414 543.814199,152.473822 534.740164,133.068014 C531.190089,125.521837 527.373036,119.574431 523.909516,118.711143 C513.518972,116.12127 472.436414,121.43848 472.436414,121.43848 Z" id="Path" fill="#32292F"></path>
                <path d="M418.71642,316 L404.223015,331.516982 C404.223015,331.516982 376.296674,345.975992 396.09256,347.739288 C415.888446,349.502584 422.604897,341.744068 422.604897,341.744068 C422.604897,341.744068 447.349749,339.980772 446.996248,336.454187 C446.642747,332.927602 444.875263,321.28986 444.875263,321.28986 L418.71642,316 Z" id="Path" fill="#32292F"></path>
                <path d="M498.01394,319.761989 L498.01394,330.68648 C498.01394,330.68648 498.366936,335.26772 498.01394,336.324925 C497.660944,337.38213 492.366063,350.421052 510.015686,347.601822 C527.665309,344.782593 520.605463,333.858109 520.605463,333.858109 L516.369555,318 L498.01394,319.761989 Z" id="Path" fill="#32292F"></path>
                <circle id="Oval" fill="#A0616A" cx="492" cy="27" r="18"></circle>
                <path d="M503.844472,37.082588 C503.844472,37.082588 501.395015,60.5406683 503.844472,64.8057712 C506.293928,69.0708741 479,60.5406683 479,60.5406683 C479,60.5406683 484.948697,44.5465504 482.849144,38.1488601 C480.749592,31.7511699 503.844472,37.082588 503.844472,37.082588 Z" id="Path" fill="#A0616A"></path>
                <path d="M518.277931,104.436065 L523.930943,119.990365 L471.287295,126 C471.287295,126 465.63429,124.939477 465.63429,120.343889 C465.63429,115.748301 459.627947,99.486995 459.627947,99.486995 C459.627947,99.486995 444.917657,87.557472 437.851394,84.37591 C435.289873,83.2234736 439.12164,83.6993704 441.276888,78.8068526 C441.923479,77.3362464 442.69721,75.7843683 443.541591,74.2112645 C444.230531,72.9209546 444.972528,71.612978 445.732117,70.3226895 C446.654297,68.7495787 447.60469,67.2012167 448.526877,65.7271015 C451.318016,61.2693871 453.865372,57.5222018 454.681561,56.005664 C457.154754,51.410076 480.406308,51 480.406308,51 C487.055598,55.1855263 506.265267,56.005664 506.265267,56.005664 C506.265267,56.005664 519.479142,61.5380304 524.983785,65.7271015 C525.383008,66.0275833 518.277931,104.436065 518.277931,104.436065 Z" id="Path" fill="#E6E6E6"></path>
                <path d="M507.160715,5.18438711 L507.160715,4.76489358 L506.65618,4.79261201 C500.84879,0.422255769 493.328828,-1.06274208 486.267858,0.766446379 C489.608229,1.63881714 492.714277,3.22474011 495.366988,5.41238895 L478.232142,6.35310264 L471,22.2353994 L475.894457,22.2353994 L479.839285,15.0883662 L479.839285,22.2353994 L496.392836,22.2353994 L497.517855,16.6765966 L500.642883,22.2353994 L503.895222,22.2353994 C503.915359,22.6317303 503.946421,23.0252467 503.946421,23.4265242 L500.732134,54 L516,47.6470785 L516,23.4265455 C516.005622,16.3357197 512.754227,9.62561613 507.160715,5.18438711 L507.160715,5.18438711 Z" id="Path" fill="#32292F"></path>
                <path d="M531,87 L529.953487,114.928245 L527.162795,169.017103 C527.162795,169.017103 531,192.349548 521.232551,191.996023 C511.465101,191.642498 518.790692,164.421317 518.790692,164.421317 L516,121.645161 L518.790692,91.5957998 L531,87 Z" id="Path" fill="#A0616A"></path>
                <path d="M534,102.593092 C534,105.769886 516.292193,104.887444 516.292193,104.887444 L507,56 C507,56 520.114264,61.5240874 525.577411,65.7068897 C526.863208,67.0494564 527.914736,68.6008047 528.687713,70.2956005 C529.104966,71.4286437 529.501158,72.7417346 529.876381,74.1783564 C530.248088,75.6043742 530.595196,77.1539513 530.921286,78.7670672 C532.451702,86.6347796 533.480044,94.593072 534,102.593092 Z" id="Path" fill="#E6E6E6"></path>
                <path d="M45,277.677087 L18.0335931,274.863456 C18.6049259,270.884784 16.3735541,267.035791 12.6537139,265.583463 C8.93387372,264.131135 4.71165356,265.460467 2.47386178,268.788507 C0.236070003,272.116548 0.575920473,276.56107 3.29324765,279.504334 C0.528932778,282.513145 0.246805067,287.066552 2.61824754,290.398514 C4.98969002,293.730476 9.36004565,294.921176 13.0744714,293.247305 C16.7888972,291.573434 18.821994,287.497078 17.9387244,283.494485 L45,280.987678 L45,277.677087 Z" id="Path" fill="#CCCCCC"></path>
                <path d="M73.047974,296.473672 C83.6954648,299.118758 94.4217302,291.489217 94.9768151,280.426311 C94.9922094,280.119506 95,279.810735 95,279.5 C95,279.189262 94.9923334,278.880492 94.9768151,278.573687 C94.4217016,267.510788 83.6954648,259.881247 73.047974,262.526326 L36.9266276,271.499704 C34.0956139,271.496986 31.4784973,273.02124 30.0622131,275.497657 C28.645929,277.974074 28.645929,281.025931 30.0622131,283.502348 C31.4784973,285.978765 34.0956139,287.503019 36.9266276,287.5003 L73.047974,296.473672 Z" id="Path" fill="#ECECEC"></path>
            </g>
        </g>
    </g>
</svg>